<?xml version="1.0" encoding="UTF-8"?>
<svg id="Layer_1" data-name="Layer 1" xmlns="http://www.w3.org/2000/svg" viewBox="0 0 1296.98 1411.34">
  <defs>
    <style>
      .cls-1 {
        fill: none;
        stroke: #231f20;
        stroke-miterlimit: 10;
      }
    </style>
  </defs>
  <polygon class="cls-1" points="537.23 1346.85 546.23 1346.85 546.23 1382.85 537.23 1382.85 537.23 1401.93 584.61 1401.93 584.61 1410.84 620.61 1410.84 620.61 1401.93 820.36 1401.93 820.36 1410.84 856.36 1410.84 856.36 1401.93 893.96 1401.93 893.96 1382.85 884.96 1382.85 884.96 1346.85 893.96 1346.85 893.96 1329.93 537.23 1329.93 537.23 1346.85"/>
  <rect class="cls-1" x="1111.98" y="569.56" width="36" height="9"/>
  <rect class="cls-1" x="1111.98" y="179.86" width="36" height="9"/>
  <polygon class="cls-1" points="864.48 160.79 864.48 248.47 855.48 248.47 855.48 284.47 864.48 284.47 864.48 484.23 855.48 484.23 855.48 520.23 864.48 520.23 864.48 592.79 1296.48 592.79 1296.48 160.79 864.48 160.79"/>
  <circle class="cls-1" cx="686.33" cy="1178.61" r="18"/>
  <rect class="cls-1" x="398.56" y="774.68" width="575.55" height="432" transform="translate(1677.01 304.35) rotate(90)"/>
  <rect class="cls-1" x="512.54" y="946.49" width="36" height="9" transform="translate(1481.53 420.45) rotate(90)"/>
  <rect class="cls-1" x="818.69" y="946.49" width="36" height="9" transform="translate(1787.67 114.3) rotate(90)"/>
  <rect class="cls-1" x="1129.98" y="528.08" width="36" height="9"/>
  <rect class="cls-1" x="1129.98" y="221.94" width="36" height="9"/>
  <polygon class="cls-1" points="58.86 1011.3 60.45 696.53 399.08 696.53 399.08 1011.3 58.86 1011.3"/>
  <rect class="cls-1" x="59.05" y=".5" width="684" height="432"/>
  <rect class="cls-1" x="168.03" y="388.54" width="36" height="9"/>
  <rect class="cls-1" x="628.52" y="388.54" width="36" height="9"/>
  <rect class="cls-1" x="168.03" y="40.81" width="36" height="9"/>
  <rect class="cls-1" x="628.52" y="40.81" width="36" height="9"/>
  <rect class="cls-1" x="70.51" y="337.44" width="36" height="9" transform="translate(430.45 253.43) rotate(90)"/>
  <rect class="cls-1" x="70.51" y="101.68" width="36" height="9" transform="translate(194.7 17.67) rotate(90)"/>
  <rect class="cls-1" x="702.09" y="337.44" width="36" height="9" transform="translate(1062.03 -378.15) rotate(90)"/>
  <rect class="cls-1" x="702.09" y="101.68" width="36" height="9" transform="translate(826.28 -613.91) rotate(90)"/>
  <rect class="cls-1" x="585.82" y="367.79" width="36" height="9"/>
  <rect class="cls-1" x="585.82" y="61.65" width="36" height="9"/>
  <polyline class="cls-1" points="443.76 987.23 442.12 1035.59 451.11 1035.91 449.86 1071.88 440.9 1071.57 438.32 1147.49 330.29 1220.58 335.33 1228.03 305.52 1248.21 300.47 1240.75 80.52 1389.57 28.32 1312.42 20.87 1317.47 .69 1287.65 8.15 1282.61 7.8 1282.08 8.15 1282.61 228.42 1133.57 228.02 1133.84 222.97 1126.39 252.79 1106.22 257.83 1113.67 257.44 1113.93 443.74 987.88"/>
  <polyline class="cls-1" points="29.38 676.1 57.85 636.96 50.58 631.66 71.78 602.57 79.02 607.85 123.7 546.42 254.13 546.42 254.13 537.42 290.13 537.42 290.13 546.42 555.7 546.42 555.7 639.57 564.7 639.57 564.7 675.57 555.7 675.57 555.7 676.2 555.7 675.57 289.74 675.57 290.23 675.57 290.23 684.57 254.23 684.57 254.23 675.57 254.7 675.57 29.77 675.57"/>
  <rect class="cls-1" x="57.9" y="805.08" width="36" height="9" transform="translate(885.49 733.68) rotate(90)"/>
  <rect class="cls-1" x="364.05" y="805.08" width="36" height="9" transform="translate(1191.63 427.54) rotate(90)"/>
  <polyline class="cls-1" points="754.54 386 754.54 493.27 790.54 493.27 790.54 502.27 754.54 502.27 754.54 632.08 826.54 632.08 826.54 581.01 835.54 581.01 835.54 545.01 826.54 545.01 826.54 120.52 835.54 120.52 835.54 84.52 826.54 84.52 826.54 .5 826.53 .5 826.53 9.5 807.44 9.5 807.44 .5 771.55 .5 771.55 9.5 754.54 9.5 754.54 377 754.54 386"/>
  <polyline class="cls-1" points="441.51 525.46 548.78 525.46 548.78 489.46 557.78 489.46 557.78 525.46 687.59 525.46 687.59 453.46 636.52 453.46 636.52 444.46 600.52 444.46 600.52 453.46 176.03 453.46 176.03 444.46 140.03 444.46 140.03 453.46 56.01 453.46 56.01 453.47 65.01 453.47 65.01 472.55 56.01 472.55 56.01 508.45 65.01 508.45 65.01 525.46 432.51 525.46 441.51 525.46"/>
</svg>