<?xml version="1.0" encoding="UTF-8"?>
<svg id="Layer_1" data-name="Layer 1" xmlns="http://www.w3.org/2000/svg" viewBox="0 0 805.86 1327.08">
  <defs>
    <style>
      .cls-1 {
        fill: none;
        stroke: #231f20;
        stroke-miterlimit: 10;
      }
    </style>
  </defs>
  <rect class="cls-1" x="16.78" y=".5" width="684" height="432"/>
  <rect class="cls-1" x="125.77" y="388.54" width="36" height="9"/>
  <rect class="cls-1" x="586.26" y="388.54" width="36" height="9"/>
  <rect class="cls-1" x="125.77" y="40.81" width="36" height="9"/>
  <rect class="cls-1" x="586.26" y="40.81" width="36" height="9"/>
  <rect class="cls-1" x="28.25" y="337.44" width="36" height="9" transform="translate(388.19 295.69) rotate(90)"/>
  <rect class="cls-1" x="28.25" y="101.68" width="36" height="9" transform="translate(152.43 59.94) rotate(90)"/>
  <rect class="cls-1" x="287.78" y="409.27" width="36" height="9"/>
  <rect class="cls-1" x="287.78" y="19.57" width="36" height="9"/>
  <rect class="cls-1" x="659.83" y="337.44" width="36" height="9" transform="translate(1019.77 -335.89) rotate(90)"/>
  <rect class="cls-1" x="659.83" y="101.68" width="36" height="9" transform="translate(784.01 -571.64) rotate(90)"/>
  <polygon class="cls-1" points="50.28 1262.58 59.28 1262.58 59.28 1298.58 50.28 1298.58 50.28 1317.66 97.65 1317.66 97.65 1326.58 133.65 1326.58 133.65 1317.66 333.41 1317.66 333.41 1326.58 369.41 1326.58 369.41 1317.66 407 1317.66 407 1298.58 398 1298.58 398 1262.58 407 1262.58 407 1245.66 50.28 1245.66 50.28 1262.58"/>
  <polygon class="cls-1" points="510.29 726.09 518.94 714.37 21.08 716.73 31.99 724.78 26.64 732.02 55.6 753.41 60.95 746.17 82.2 761.86 485.28 759.95 488.9 755.05 496.14 760.4 517.53 731.44 510.29 726.09"/>
  <polygon class="cls-1" points="505.99 655.38 514.65 643.66 16.78 646.02 27.69 654.07 22.35 661.31 51.31 682.7 56.65 675.46 77.91 691.15 480.99 689.24 484.6 684.34 491.84 689.69 513.23 660.73 505.99 655.38"/>
  <polygon class="cls-1" points="625.17 547.93 625.17 538.93 589.17 538.93 589.17 547.93 164.68 547.93 164.68 538.93 128.68 538.93 128.68 547.93 44.66 547.93 44.66 619.93 421.16 619.93 421.16 583.93 430.16 583.93 430.16 619.93 676.24 619.93 676.24 547.93 625.17 547.93"/>
  <polygon class="cls-1" points="625.17 454.26 625.17 445.26 589.17 445.26 589.17 454.26 164.68 454.26 164.68 445.26 128.68 445.26 128.68 454.26 44.66 454.26 44.66 526.26 421.16 526.26 421.16 490.26 430.16 490.26 430.16 526.26 676.24 526.26 676.24 454.26 625.17 454.26"/>
  <rect class="cls-1" x="543.55" y="367.79" width="36" height="9"/>
  <rect class="cls-1" x="543.55" y="61.65" width="36" height="9"/>
  <polyline class="cls-1" points="748.35 1228.7 796.36 1263.62 796.36 1084.66 796.36 954.16 805.36 954.16 805.36 918.16 796.36 918.16 796.36 652.66 679.44 652.66 679.44 643.66 643.44 643.66 643.44 652.66 550.29 652.66 550.29 918.22 541.29 918.22 541.29 954.22 550.29 954.22 550.29 1084.66 718.59 1207.06"/>
  <rect class="cls-1" x=".5" y="787.76" width="504.29" height="432"/>
  <rect class="cls-1" x="133.84" y="1155" width="36" height="9"/>
  <rect class="cls-1" x="133.84" y="848.86" width="36" height="9"/>
  <polyline class="cls-1" points="747.36 1227.99 747.99 1228.46 742.7 1235.73 713.59 1214.54 718.89 1207.27 719.79 1207.92"/>
</svg>